<svg width="262" height="177" viewBox="0 0 262 177" fill="none" xmlns="http://www.w3.org/2000/svg">
<g opacity="0.1">
<path d="M79.7898 120.749L59.5555 127.074L49.6048 95.2434L56.3814 93.125L64.4673 118.991L77.925 114.784L79.7898 120.749ZM98.8681 115.413C89.1804 118.442 82.8029 114.464 80.3562 106.637L74.3738 87.5003L81.2459 85.352L87.1537 104.25C88.5411 108.688 92.0729 110.937 96.9883 109.4C101.904 107.864 103.478 104.019 102.091 99.5806L96.183 80.6825L103.103 78.5193L109.07 97.6083C111.547 105.53 108.556 112.385 98.8681 115.413ZM148.769 99.1851L142.231 101.229L120.566 85.2138L127.055 105.973L120.279 108.092L110.328 76.2606L117.295 74.0825L138.293 89.4684L132.042 69.4727L138.818 67.3542L148.769 99.1851ZM185.683 87.6453L177.952 90.0621L174.31 85.2811L160.661 89.5479L160.342 95.5671L152.611 97.9839L154.973 62.304L163.468 59.6485L185.683 87.6453ZM170.584 79.8977L161.339 67.7528L160.657 83.0007L170.584 79.8977ZM200.74 83.567C194.631 85.4766 189.599 84.797 185.701 82.7154L187.764 76.4127C190.738 78.0499 194.834 78.9175 199.224 77.5449C202.946 76.3813 204.223 74.0964 203.656 72.2829C201.895 66.6517 184.778 76.2459 181.034 64.2676C179.378 58.9704 182.587 53.1478 190.079 50.8055C195.138 49.2242 199.815 49.4384 203.874 51.3649L201.656 57.5066C198.333 55.9261 194.554 55.9026 191.309 56.9171C188.398 57.8271 187.178 59.6228 187.775 61.5317C189.356 66.5903 206.574 57.4882 210.289 69.3711C212.109 75.1932 209.33 80.8816 200.74 83.567Z" fill="#24A7A0"/>
<rect x="19.6533" y="80.8757" width="209" height="81" rx="7" transform="rotate(-17.3599 19.6533 80.8757)" stroke="#24A7A0" stroke-width="3"/>
<rect x="2.41211" y="72.645" width="236" height="107" rx="7" transform="rotate(-17.3599 2.41211 72.645)" stroke="#24A7A0" stroke-width="8"/>
</g>
</svg>
